<?xml version="1.0" encoding="utf-8"?>
<!-- Svg Vector Icons : http://www.onlinewebfonts.com/icon -->
<!DOCTYPE svg PUBLIC "-//W3C//DTD SVG 1.1//EN" "http://www.w3.org/Graphics/SVG/1.1/DTD/svg11.dtd">
<svg version="1.1" xmlns="http://www.w3.org/2000/svg" xmlns:xlink="http://www.w3.org/1999/xlink" x="0px" y="0px" viewBox="0 0 1000 1000" enable-background="new 0 0 1000 1000" xml:space="preserve">
<metadata> Svg Vector Icons : http://www.onlinewebfonts.com/icon </metadata>
<g><path d="M938,430.8"/><path d="M892,229.2c-21.6-29-51.7-62.9-84.8-95.4c-33-32.5-67.5-62.2-96.9-83.4C660.2,14.2,635.9,10,622,10H139.8C96.9,10,62,44.3,62,86.6v826.9c0,42.2,34.9,76.6,77.8,76.6h715.5c42.9,0,77.8-34.3,77.8-76.6V316.2C933.1,302.5,928.8,278.6,892,229.2z M684.1,107.7c22.4,17.1,49.3,40.1,79.1,69.4h0.1c29.9,29.4,53.3,55.9,70.6,77.9H684.1V107.7z M870.9,913.4c0,8.3-7.1,15.3-15.6,15.3H139.8c-8.5,0-15.6-7-15.6-15.3V86.6c0-8.3,7.1-15.3,15.6-15.3H622v214.4c0,16.9,13.9,30.6,31.1,30.6h217.8L870.9,913.4L870.9,913.4z M640.9,505.6c0-117.4-96.7-212.6-216-212.6c-119.3,0-216,95.2-216,212.6c0,117.4,96.7,212.6,216,212.6c47,0,84.9-9.4,120.4-34.4l176.5,173.8c6.6,6.5,17.4,6.5,24,0l23.4-23.1c6.6-6.5,6.6-17.1,0-23.6L593.8,638.2C623.3,601.8,640.9,555.7,640.9,505.6z M424.9,644.7c-78,0-141.2-62.3-141.2-139c0-76.8,63.2-139,141.2-139c78,0,141.2,62.2,141.2,139C566.2,582.4,502.9,644.7,424.9,644.7z"/></g>
</svg>